# xmcd
#
# Track frame offsets:
#	150
#	11053
#	23651
#	45260
#	57099
#	78150
#	93523
#	106713
#	118926
#	131617
#	140849
#	152380
#	162228
#	174955
#	186098
#	196817
#	208742
#	222742
#	239005
#	261344
#
# Disc length: 3643 seconds
#
# Revision: 1206551135
# Processed by: cddbd v1.5.2PL0 Copyright (c) Steve Scherf et al.
# Submitted via: EZCDAudioConverter 9.1.1.1
#
DISCID=130e3914
DTITLE=100 Hits - 100 Hits - Country - CD 5
DYEAR=2007
DGENRE=Country
TTITLE0=Jim Reeves - Welcome To My World
TTITLE1=Waylon Jennings - I'm A Ramblin' Man
TTITLE2=Merle Haggard - Pancho And Lefty
TTITLE3=Skeeter Davis - The End Of The World
TTITLE4=Marty Robbins - El Paso
TTITLE5=Melba Montgomery - No Charge
TTITLE6=Charlie Rich - Your Cheatin' Heart
TTITLE7=Eddy Arnold - I'll Hold You In My Heart (Till I Can Hold You In My Arm
TTITLE7=s)
TTITLE8=Freddy Fender - Wasted Days And Wasted Nights
TTITLE9=Chet Atkins - Yakety Axe
TTITLE10=George Hamilton IV - She's A Little Bit Country
TTITLE11=Jerry Reed - Are You From Dixie (Cause I'm From Dixie Too)
TTITLE12=Hank Snow - I'm Movin' On
TTITLE13=Hank Locklin - Send Me The Pillow You Dream On
TTITLE14=Porter Wagoner - Green, Green Grass Of Home
TTITLE15=Willie Nelson - Shotgun Willie
TTITLE16=Tom Paxton - The Last Thing On My Mind
TTITLE17=Kris Kristofferson - The Silver Tongued Devil And I
TTITLE18=Vern Gosdin - The First Time Ever I Saw Your Face
TTITLE19=The Everly Brothers - I Walk The Line
EXTD=
EXTT0=
EXTT1=
EXTT2=
EXTT3=
EXTT4=
EXTT5=
EXTT6=
EXTT7=
EXTT8=
EXTT9=
EXTT10=
EXTT11=
EXTT12=
EXTT13=
EXTT14=
EXTT15=
EXTT16=
EXTT17=
EXTT18=
EXTT19=
PLAYORDER=
